<svg width="32" height="32" viewBox="0 0 32 32" fill="none" xmlns="http://www.w3.org/2000/svg">
<path d="M13.2496 20.6667C13.1305 20.2053 12.89 19.7842 12.5531 19.4472C12.2161 19.1103 11.795 18.8698 11.3336 18.7507L3.15358 16.6414C3.01402 16.6018 2.89119 16.5177 2.80373 16.402C2.71627 16.2862 2.66895 16.1451 2.66895 16C2.66895 15.855 2.71627 15.7139 2.80373 15.5981C2.89119 15.4824 3.01402 15.3983 3.15358 15.3587L11.3336 13.248C11.7948 13.1291 12.2158 12.8888 12.5528 12.5521C12.8897 12.2154 13.1303 11.7946 13.2496 11.3334L15.3589 3.15338C15.3981 3.01327 15.4821 2.88984 15.598 2.80191C15.7139 2.71398 15.8554 2.66638 16.0009 2.66638C16.1464 2.66638 16.2879 2.71398 16.4038 2.80191C16.5197 2.88984 16.6037 3.01327 16.6429 3.15338L18.7509 11.3334C18.8699 11.7948 19.1105 12.2159 19.4474 12.5529C19.7844 12.8898 20.2055 13.1303 20.6669 13.2494L28.8469 15.3574C28.9876 15.3962 29.1116 15.4801 29.2 15.5961C29.2884 15.7122 29.3363 15.8541 29.3363 16C29.3363 16.146 29.2884 16.2879 29.2 16.4039C29.1116 16.52 28.9876 16.6039 28.8469 16.6427L20.6669 18.7507C20.2055 18.8698 19.7844 19.1103 19.4474 19.4472C19.1105 19.7842 18.8699 20.2053 18.7509 20.6667L16.6416 28.8467C16.6024 28.9868 16.5184 29.1103 16.4025 29.1982C16.2866 29.2861 16.1451 29.3337 15.9996 29.3337C15.8541 29.3337 15.7126 29.2861 15.5967 29.1982C15.4808 29.1103 15.3968 28.9868 15.3576 28.8467L13.2496 20.6667Z" stroke="#3AB9A0" stroke-width="2.66667" stroke-linecap="round" stroke-linejoin="round"/>
<path d="M26.667 4V9.33333" stroke="#3AB9A0" stroke-width="2.66667" stroke-linecap="round" stroke-linejoin="round"/>
<path d="M29.3333 6.66663H24" stroke="#3AB9A0" stroke-width="2.66667" stroke-linecap="round" stroke-linejoin="round"/>
<path d="M5.33301 22.6666V25.3333" stroke="#3AB9A0" stroke-width="2.66667" stroke-linecap="round" stroke-linejoin="round"/>
<path d="M6.66667 24H4" stroke="#3AB9A0" stroke-width="2.66667" stroke-linecap="round" stroke-linejoin="round"/>
</svg>
