<svg width="32" height="32" viewBox="0 0 32 32" fill="none" xmlns="http://www.w3.org/2000/svg">
<path d="M19.9997 16H13.333" stroke="#3AB9A0" stroke-width="2.66667" stroke-linecap="round" stroke-linejoin="round"/>
<path d="M19.9997 10.6666H13.333" stroke="#3AB9A0" stroke-width="2.66667" stroke-linecap="round" stroke-linejoin="round"/>
<path d="M25.333 22.6667V6.66667C25.333 5.95942 25.0521 5.28115 24.552 4.78105C24.0519 4.28095 23.3736 4 22.6663 4H5.33301" stroke="#3AB9A0" stroke-width="2.66667" stroke-linecap="round" stroke-linejoin="round"/>
<path d="M10.667 28H26.667C27.3742 28 28.0525 27.719 28.5526 27.219C29.0527 26.7189 29.3337 26.0406 29.3337 25.3333V24C29.3337 23.6464 29.1932 23.3072 28.9431 23.0572C28.6931 22.8071 28.3539 22.6667 28.0003 22.6667H14.667C14.3134 22.6667 13.9742 22.8071 13.7242 23.0572C13.4741 23.3072 13.3337 23.6464 13.3337 24V25.3333C13.3337 26.0406 13.0527 26.7189 12.5526 27.219C12.0525 27.719 11.3742 28 10.667 28ZM10.667 28C9.95975 28 9.28147 27.719 8.78137 27.219C8.28128 26.7189 8.00033 26.0406 8.00033 25.3333V6.66667C8.00033 5.95942 7.71937 5.28115 7.21928 4.78105C6.71918 4.28095 6.0409 4 5.33366 4C4.62641 4 3.94814 4.28095 3.44804 4.78105C2.94794 5.28115 2.66699 5.95942 2.66699 6.66667V9.33333C2.66699 9.68696 2.80747 10.0261 3.05752 10.2761C3.30756 10.5262 3.6467 10.6667 4.00033 10.6667H8.00033" stroke="#3AB9A0" stroke-width="2.66667" stroke-linecap="round" stroke-linejoin="round"/>
</svg>
